<svg width="402" height="568" viewBox="0 0 402 568" fill="none" xmlns="http://www.w3.org/2000/svg">
<path d="M364 551.5L353.5 542.5L352.5 566.5L372 568.5L364 551.5Z" fill="#D8D2C3"/>
<path d="M218 546H205.5V567H232H249.5H266L282.5 564.5L299.5 560.5L316.5 550L316 523L313 525.5L306.5 531.5L288.5 535.5L259 543.5L240 547H227L218 546Z" fill="#3A3A3A"/>
<path d="M243.5 562L208.5 564V569L316 573.5V549.5L300 553.5L288.5 557.5L243.5 562Z" fill="#D8D2C3"/>
<path d="M248.5 563.5V546L281.5 535L280.5 539V559.5L248.5 563.5Z" fill="#A3A3A3"/>
<path d="M186 99C187 98 188.5 97.5 188.5 97.5C188.5 97.5 190.5 96.5 192 96.5C193.5 96.5 199.5 97.5 199.5 97.5L202 100.5L203.5 110L205.5 120L207 124L208 133V136L206.5 137.5C206 138 202.5 139 201 138.5C199.5 138 198 137 197 136C196 135 196 133 195.5 132C195 131 193 126.5 192.5 124.5C192 122.5 191 121.5 191 120C191 118.5 189 116.5 188.5 115.5C188 114.5 186.5 111.5 186 110C185.5 108.5 185 105 185 104C185 103 185 100 186 99Z" fill="#D1B497"/>
<path d="M198.5 183L194.5 187.5L192 189L190.5 193.5L190 199L191.5 203L195.5 209L199 213L205.5 221L217.5 233.5L226.5 240L235 246L245.5 249.5H259.5L268 247.5L277 241.5L285.5 231L289 222.5L291 209V206.5L288 200.5L285.5 194.5L282.5 188V180.5L283.5 171.5L281.5 173L277 178L270 181L256 183L246 181L240 178L228.5 175.5L222 171.5L216 163L212 156L210 147V154.5L208 165.5L203.5 175.5L198.5 183Z" fill="#D1B497"/>
<path d="M210 148.5L207.5 138L200 99L195 88.5L197.5 48.5L227 38L264 32.5L283 36L295 70.5L301 92L302 99V109.5L301 117.5L300 126L298 138.5L296.5 148L293 158.5L289 167L285 172.5L280.5 176L276.5 179.5L269.5 182L259.5 184H255L245 181.5L240.5 179.5L237 178.5L227 176L221 171.5L218 167L212 157.5L211 153.5L210 148.5Z" fill="#D9BCA1"/>
<path d="M314 550.5L309 528L300.5 531L306 552.5L314 550.5Z" fill="#D8D2C3"/>
<path d="M249.449 152.5L245 149.438L255.362 149L261.768 149.875L266.203 149.438L271.13 149.875L274 150.5H275.5L280.5 149L276.058 152.5L273.594 153.812L268.174 155.125L261.275 156L256.841 155.125L252.899 153.812L249.449 152.5Z" fill="#7B4D50"/>
<path d="M249.437 149.077L245 149.5L249.93 151L253.873 149.846H257.324L261.268 150.615L265.704 149.846H270.141L273.099 150.615H276.549L280.5 149.077L278.5 148.5L276.549 148.308L274.085 146.769L270.141 146H267.676L263.732 146.769H259.789L257.324 146L253.873 146.769L249.437 149.077Z" fill="#8E5D60"/>
<path d="M317 522.027L312.5 526.005L311 527L313 517.551L311 406.654L307.5 352.449L299 271.886V251L300.5 251.995L317 318.632L322 365.876V472.297L317 522.027Z" fill="#717171"/>
<path d="M16 519L37.5 460.5L50 468.5V486L54 503L56.5 519L65 549.5L71.5 568.5H0L7 546.5L16 519Z" fill="#D8D2C3"/>
<path d="M137.5 212.5L130 216L128 217L136.5 225L141.5 234.5L145.5 247V262L144.5 284L138.5 323.5L131 377.5L121 429L110 464.5L105 467.5L103 476.5L105 483.5L111 502.5L117.5 528.5L122.5 554.5L124 567.5H128.5L130.5 549.5L141.5 502.5L144.5 493.5L141.5 487L144.5 481.5L140 473.5L137.5 462.5L136.5 448.5L137.5 429L143.5 385L147 360.5L153.5 323.5L157 282V260L156 245V238L153 229L147 219.5L143.5 216L137.5 212.5Z" fill="#D8D2C3"/>
<path d="M195 179.5L192 189L198 185.5L207 173.5L208 164L206.5 165L199 173L195 179.5Z" fill="#201F1D"/>
<path d="M106.5 465.5L49.5 467V486.5L51.5 494.5L54 508.5L58 525.5L63.5 547L70.5 567.5H123.5V561L118 530L111.5 502.5L103 476.5L106.5 465.5Z" fill="#D9BCA1"/>
<path d="M360 406.5L343 409.5L352.5 541.5L363.5 551L362 535L363.5 497.5V473.5V449.5L361 435L360 406.5Z" fill="#D9BCA1"/>
<path d="M298 214.5L291.5 207.5L290 214.5L291.5 219L294 224.5L298 238.5L302 234.5L298 214.5Z" fill="#201F1D"/>
<path d="M190 199V197L188.5 206L186.5 236.5V257L185 265V270.5V282.5V288L188.5 296.5V300.5L189.5 319.5L191 342L193 365L195 393L195.5 407.5L199 439L201.5 470L202.5 494L204.5 511L206 530.5L207 546L212 547H226H245L251.5 546L267 541L288.5 536L306.5 531.5L310.5 528L316 523V509.5V485.5L313.5 447L310 382.5L308.5 350.5L304 314L300 279V271.5L298 245V237.5L296 228.5L295 220L291.5 208L289.5 218.5L288 225.5L280 237.5L271.5 245L262 249H246.5L236.5 246.5L221 236.5L208.5 224.5L195.5 209.5L190 199Z" fill="#D9D9D9"/>
<path d="M149 208L168.5 196.5L156 247L154 236.5L149 223.5L143.5 216.633L137.5 212.5L132 215L128 217L134 219.5L141.5 230.5L146 241.5V253V267V285.5L139.5 327L137 353L130 388.5L124 420L120.5 434L114.5 450L110 466L98.5 468.5H73H52.5L32.5 462L28 455L32.5 437.5L45 378.5L59.5 319L74.5 268.5L84 253L99 236.5L109.5 225.5L128 217L132 215L137.5 212.5L149 208Z" fill="#393F37"/>
<path d="M185 263H157V279L155 298.5L148.5 330L143 372.5L137.5 418.5L136.5 440.5V450.5V458.5V463.5L139 471L141.5 480.5V486.5V495L140.5 502.5L136.5 527L130 549.5L128.5 568L209 566.5L206.5 540.5L202.5 493.5L197.5 428.5L192.5 365.5L188.5 304.5L187 271L185 263Z" fill="#393F37"/>
<g filter="url(#filter0_d_26_183)">
<path d="M199.5 167.5L208 163.5L196 178.5L191.5 190L189 200V208V222L187.5 235L186 252.5V263.5H178H168.5H154.5L152 260L154.5 250.5L157 238L160.5 219L164 204L168.5 193.5L171 190L178 185L191.5 173.5L199.5 167.5Z" fill="#393F37"/>
</g>
<path d="M315.5 527L313.5 567H357.5L355 544.5L344 410L357.5 408.5L402 397.5L392.5 360.5L384 318.5L371.5 267.5L363.5 243.5L355 234L343 225L322 211L303 201.5L330 223.5L313.5 234L298.5 250L303 271L311.5 328.5L316 382.5L318.5 403.5V435.5V479.5L315.5 527Z" fill="#393F37"/>
<g filter="url(#filter1_d_26_183)">
<path d="M287.5 184L283 177.5V187.5L285.5 194.5L291 205.5L296.5 215.5L298.5 227.5V235.5L299 252.5L305.5 245L310 238.5L323.5 230.5L330.5 225.5L331.5 224L331 222.5L327.5 220L317 211.5L303 200.5L294.5 191.5L287.5 184Z" fill="#393F37"/>
</g>
<path d="M342.5 383.5L344 410L349 409.5L348 375.5L345.5 353L336 317V334.5L340 360.5L342.5 383.5Z" fill="#1F1E1C"/>
<path d="M222.5 569L228 547H218.5L212 568L222.5 569Z" fill="#D8D2C3"/>
<g clip-path="url(#clip0_26_183)">
<path d="M254.866 130.125C254.632 130.229 254.356 130.124 254.252 129.888C254.147 129.651 254.253 129.378 254.489 129.273C254.983 129.054 256.092 129.378 257.201 129.819C258.228 130.229 259.278 130.731 259.742 130.959C261.004 131.574 262.113 131.646 263.084 131.464C264.076 131.281 264.949 130.83 265.698 130.417C266.038 130.23 266.457 129.938 266.903 129.631C267.996 128.873 269.214 128.026 270.11 128.144C270.364 128.178 270.543 128.411 270.51 128.665C270.476 128.919 270.243 129.099 269.989 129.065C269.447 128.993 268.384 129.731 267.43 130.393C266.968 130.716 266.527 131.021 266.147 131.229C265.332 131.676 264.38 132.168 263.253 132.377C262.106 132.591 260.804 132.509 259.336 131.794C258.881 131.572 257.852 131.077 256.859 130.68C255.943 130.319 255.083 130.029 254.866 130.125ZM256.205 105.983C256.234 105.704 256.487 105.501 256.765 105.53C257.044 105.56 257.248 105.812 257.218 106.09L256.963 108.399C256.962 108.413 256.96 108.427 256.957 108.438C256.785 109.605 256.562 110.68 256.342 111.745C255.925 113.761 255.513 115.743 255.523 117.897C255.526 118.585 255.564 119.066 255.594 119.439C255.714 120.924 255.719 120.997 253.88 122.658C252.519 123.888 252.524 124.032 251.915 125.003C251.325 125.943 251.04 126.807 250.963 127.684C250.872 128.732 251.16 129.623 251.705 130.283C252.278 130.981 252.025 131.7 253.032 131.819C253.427 131.865 254.007 132.52 254.422 132.509C254.844 132.499 255.282 132.461 255.728 132.403C256.006 132.369 256.263 132.566 256.298 132.845C256.332 133.123 256.134 133.38 255.856 133.415C255.381 133.475 254.908 133.225 254.448 133.239C253.98 133.251 253.501 132.789 253.065 132.737C251.792 132.587 251.659 131.832 250.917 130.932C250.211 130.073 249.834 128.928 249.949 127.597C250.039 126.56 250.37 125.55 251.053 124.464C251.717 123.409 251.768 123.193 253.198 121.9C254.666 120.573 254.663 120.525 254.581 119.519C254.549 119.119 254.508 118.601 254.504 117.907C254.495 115.639 254.915 113.608 255.344 111.54C255.568 110.463 255.793 109.375 255.952 108.291L256.205 105.983ZM264.233 105.57C264.163 105.299 264.325 105.019 264.598 104.949C264.869 104.878 265.149 105.04 265.219 105.314L265.814 107.559C266.132 108.607 266.516 109.65 266.897 110.682C267.627 112.661 268.343 114.609 268.67 116.854C268.769 117.541 268.806 118.06 268.833 118.46C268.901 119.467 268.761 119.498 269.018 120.32C269.275 121.142 270.588 122.475 271.401 123.422C272.236 124.395 272.714 125.344 272.956 126.356C273.268 127.656 273.066 128.843 272.493 129.798C271.893 130.8 270.89 131.537 269.654 131.874C269.228 131.99 271.502 132.238 271.038 132.295C270.581 132.352 270.113 132.383 269.633 132.391C269.353 132.398 269.119 132.176 269.112 131.893C269.105 131.612 269.327 131.379 269.61 131.371C270.059 131.363 270.496 131.335 270.917 131.283C271.329 131.232 269.008 130.992 269.391 130.888C270.37 130.621 271.154 130.048 271.62 129.273C272.058 128.539 272.211 127.616 271.966 126.592C271.761 125.737 271.35 124.924 270.627 124.083C269.882 123.213 269.849 122.792 268.455 121.171C267.849 119.361 267.921 120.017 267.819 118.531C267.794 118.158 267.761 117.678 267.662 116.995C267.352 114.864 266.653 112.965 265.94 111.032C265.565 110.011 265.184 108.982 264.842 107.853C264.839 107.84 264.833 107.829 264.83 107.815L264.233 105.57Z" fill="#C5AE99"/>
</g>
<path d="M251.454 49.4791L262.5 48.2872L260.5 24.8485L260.5 19.8485L251.454 13.8485L237.5 11.8485L211.3 22.5123L193.227 33.8031L187.015 48.2872L185.428 62.7736L185.428 84L188.838 96L205.541 117.072L211.3 88L212.631 60.1585L215.543 49.3436L226.755 38.2777L245.636 36.7274L251.454 49.4791Z" fill="#877E6C"/>
<path d="M264.691 48.2405L256.411 47.1409L259.784 25.517L260.909 19.9816L264.691 15.3485L273.5 15.3485L294.79 23.3617L308.338 33.7783L310.999 47.1409L310.999 62.3485L310.999 82.1575L309.499 98.3485L302.668 109.258L299.107 82.1575L293.792 58.093L291.61 48.1155L283.206 37.9064L269.052 36.4761L264.691 48.2405Z" fill="#877E6C"/>
<path d="M256.066 39.0955L260 41.3457L254.1 26.3447L229.813 22.3485L215.75 29.3449L203.5 35.3485L201 48.8462L197.5 60.3485L201 74.8485L207.883 97.8485L212.5 110.849L220.5 70.3485L225.5 51.8485V44.8485L232.5 36.3485L248.2 32.3451L256.066 39.0955Z" fill="#938975"/>
<path d="M263.894 40.6763L261 42.7358L265.342 29.006L283.216 25.3485L293.568 31.752L302.584 37.2468L304.424 49.6006L307 60.1282L304.424 73.3994L302.584 94.8485L301.5 102.349L290.072 69.2807L286.392 52.3485V45.9417L281.24 38.1621L269.684 34.4979L263.894 40.6763Z" fill="#938975"/>
<path d="M256.066 36.0955L260 38.3457L256.066 22.3485L244 14.3485H232.5L220 23.3485L202.966 36.0955L201 45.8462L202.966 54.8468L207.883 69.0978L215.75 80.3485L232.5 84.3485L229.813 65.8485L225.5 48.8485V41.8485L232.5 33.3485L248.2 29.3451L256.066 36.0955Z" fill="#AC9F87"/>
<path d="M261.866 36.2315L259 38.2888L261.866 23.6628L270.661 16.3485H279.042L288.152 24.5771L300.566 36.2315L302 45.1464L300.566 53.3755L299.5 68.8485L295 78.3485L297 90.3485L286 64.3485L284.144 47.8914V41.4914L279.042 33.7199L267.6 30.0597L261.866 36.2315Z" fill="#AC9F87"/>
<path d="M258 46.3485L262 50.8485L261 42.3485L250.5 39.3485L241.5 44.3485L235 50.8485V63.3485L239 71.8485L246.5 76.8485L243 68.8485L239 59.3485L243 50.8485L250.5 46.3485H258Z" fill="#A99A84"/>
<path d="M258 51.3485L262 55.8485L261 47.3485L250.5 44.3485L241.5 49.3485L235 55.8485V68.3485L239 76.8485L246.5 81.8485L243 73.8485L239 64.3485L243 55.8485L250.5 51.3485H258Z" fill="#B9A98B"/>
<path d="M261.933 41.4583L260.5 38.8485L261.933 30.8485L278.8 24.3485L292 31.7875L301.533 41.4583L303 51.129L301.533 60.0558L297.866 74.19L289.8 85.3485V68.2388L295.666 54.1046L289.8 41.4583L278.8 34.7631H267.8L261.933 41.4583Z" fill="#A3957B"/>
<path d="M253.989 36.4583L252 33.8485L253.989 25.8485L277.404 19.3485L295.729 26.7875L308.963 36.4583L311 46.129L308.963 55.0558L303.873 69.19L292.675 80.3485V63.2388L300.819 49.1046L292.675 36.4583L277.404 29.7631H262.134L253.989 36.4583Z" fill="#9D917A"/>
<path d="M260.666 44.3729L258 46.2022L262 34.007L276 30.3485L288 36.4461L296.666 44.3729L298 52.2997L296.666 59.6168L293.333 71.2022L286 80.3485V66.3241L291.333 54.7388L286 44.3729L276 38.8851H266L260.666 44.3729Z" fill="#A99A84"/>
<path d="M266.148 46.2552L262 50.6952L263.037 42.3085L273.925 39.3485L283.259 44.2818L290 50.6952V63.0285L285.851 71.4152L278.074 76.3485L281.703 68.4552L285.851 59.0818L281.703 50.6952L273.925 46.2552H266.148Z" fill="#A99A84"/>
<path d="M263.133 41.4583L266 43.69L261.7 28.8119L244 24.8485L233.75 31.7875L224.433 41.4583L223 51.129L224.433 60.0558L228.016 74.19L235.9 85.3485V68.2388L230.166 54.1046L235.9 41.4583L246.65 34.7631H257.4L263.133 41.4583Z" fill="#9D917A"/>
<path d="M264.4 44.3729L267 46.2022L263.1 34.007L249.45 30.3485L237.75 36.4461L229.3 44.3729L228 52.2997L229.3 59.6168L232.55 71.2022L239.7 80.3485V66.3241L234.5 54.7388L239.7 44.3729L249.45 38.8851H259.2L264.4 44.3729Z" fill="#A99A84"/>
<path d="M261.8 46.8485L264 48.3485L260.7 38.3485L249.15 35.3485L239.25 40.3485L232.1 46.8485L231 53.3485L232.1 59.3485L234.85 68.8485L240.9 76.3485V64.8485L236.5 55.3485L240.9 46.8485L249.15 42.3485H257.4L261.8 46.8485Z" fill="#B9A98B"/>
<path d="M268.951 97.4266C269.056 96.2669 270.112 95.3075 270.866 94.5538C271.571 93.8484 272.17 92.7748 273.079 92.2555C275.086 91.1087 277.199 90.8815 279.293 89.9998C280.511 89.4869 282.441 89.3827 283.74 89.3827C285.418 89.3827 287.096 89.3827 288.773 89.3827C289.487 89.3827 290.687 89.6153 291.263 90.0637C291.792 90.4751 292.604 91.2979 293.274 91.2979" stroke="#AC9F87" stroke-width="3" stroke-linecap="round"/>
<path d="M248.649 97.8097C248.113 96.2005 246.129 95.1441 245.106 93.8941C244.358 92.9793 243.367 92.3284 242.425 91.5958C240.879 90.3939 238.938 89.7657 237.009 89.7657C234.378 89.7657 231.707 89.6424 229.103 89.9679C228.347 90.0624 227.713 90.5641 227.007 90.7659C226.044 91.041 224.936 91.5055 224.134 92.1065C223.277 92.7492 222.514 93.2279 221.538 93.7026C220.94 93.9935 220.438 94.487 219.921 94.7453" stroke="#AC9F87" stroke-width="3" stroke-linecap="round"/>
<path d="M273.92 105.989C273.066 105.937 268.436 104.784 268.436 104.784C268.436 104.784 269.628 102.513 270.709 101.462C271.79 100.41 273.593 98.872 275.021 98.6295C276.449 98.3871 277.839 97.7233 279.438 97.8161C281.038 97.9089 282.073 98.044 283.001 98.0699C283.93 98.0957 286.306 98.6693 287.08 99.0488C287.854 99.4284 290.925 103.839 290.925 103.839C290.925 103.839 289.162 104.674 288.017 104.863C286.872 105.051 285.49 105.847 284.069 105.855C282.649 105.864 280.848 106.52 279.409 106.331C277.97 106.141 274.774 106.041 273.92 105.989Z" fill="white"/>
<path d="M274.358 103.464C274.543 104.024 275.546 106.117 275.546 106.117C275.546 106.117 277.043 106.21 277.727 106.239C278.407 106.268 278.905 106.299 279.892 106.361L279.908 106.362C280.906 106.424 282.435 106.018 282.435 106.018C282.435 106.018 283.557 104.084 283.619 103.086C283.681 102.088 283.764 101.855 283.743 101.09C283.722 100.325 282.932 98.0336 282.932 98.0336L280.936 97.9093L278.939 97.7851C277.941 97.7229 277.798 97.923 276.912 98.1598C276.027 98.3967 275.021 98.6295 275.021 98.6295C275.021 98.6295 274.26 100.848 274.214 101.422C274.169 101.997 274.172 102.904 274.358 103.464Z" fill="#81AFD9"/>
<circle cx="278.691" cy="101.777" r="1.5" transform="rotate(3.56196 278.691 101.777)" fill="#201F1D"/>
<path d="M231.984 106.349C231.134 106.242 226.587 104.796 226.587 104.796C226.587 104.796 227.922 102.606 229.068 101.626C230.214 100.645 232.112 99.2252 233.552 99.0744C234.993 98.9236 236.422 98.3499 238.012 98.5446C239.603 98.7393 240.628 98.9402 241.552 99.0253C242.477 99.1103 244.811 99.8343 245.56 100.263C246.308 100.691 249.091 105.289 249.091 105.289C249.091 105.289 247.279 106.01 246.124 106.124C244.969 106.239 243.539 106.945 242.121 106.863C240.703 106.781 238.864 107.321 237.44 107.04C236.016 106.759 232.833 106.455 231.984 106.349Z" fill="white"/>
<path d="M232.582 103.857C232.731 104.427 233.599 106.58 233.599 106.58C233.599 106.58 235.087 106.769 235.767 106.841C236.444 106.914 236.939 106.976 237.92 107.101L237.936 107.103C238.928 107.229 240.479 106.921 240.479 106.921C240.479 106.921 241.723 105.063 241.849 104.071C241.974 103.079 242.072 102.852 242.1 102.086C242.128 101.321 241.485 98.9846 241.485 98.9846L239.501 98.7331L237.517 98.4817C236.525 98.356 236.369 98.5465 235.47 98.7264C234.571 98.9062 233.552 99.0744 233.552 99.0744C233.552 99.0744 232.652 101.239 232.569 101.81C232.487 102.38 232.432 103.286 232.582 103.857Z" fill="#81AFD9"/>
<circle cx="237.014" cy="102.45" r="1.5" transform="rotate(7.22161 237.014 102.45)" fill="#201F1D"/>
<path d="M260 48.5L262.467 52L261.944 46.7734L265.067 44H274.567L284.067 48.5L289.133 57L284.067 66.5V78L291.033 70.5L294.2 61L295.467 55L294.2 48.5L285.967 42L274.567 37L261.267 40L261.944 46.7734L260 48.5Z" fill="#B9A98B"/>
<path d="M265.148 49.9067L261 54.3467L262.037 45.96L272.926 43L282.259 47.9333L289 54.3467V66.68L284.852 75.0667L277.074 80L280.704 72.1067L284.852 62.7333L280.704 54.3467L272.926 49.9067H265.148Z" fill="#B9A98B"/>
<defs>
<filter id="filter0_d_26_183" x="134" y="150.5" width="84" height="128" filterUnits="userSpaceOnUse" color-interpolation-filters="sRGB">
<feFlood flood-opacity="0" result="BackgroundImageFix"/>
<feColorMatrix in="SourceAlpha" type="matrix" values="0 0 0 0 0 0 0 0 0 0 0 0 0 0 0 0 0 0 127 0" result="hardAlpha"/>
<feOffset dx="-4" dy="1"/>
<feGaussianBlur stdDeviation="7"/>
<feComposite in2="hardAlpha" operator="out"/>
<feColorMatrix type="matrix" values="0 0 0 0 0 0 0 0 0 0 0 0 0 0 0 0 0 0 0.25 0"/>
<feBlend mode="normal" in2="BackgroundImageFix" result="effect1_dropShadow_26_183"/>
<feBlend mode="normal" in="SourceGraphic" in2="effect1_dropShadow_26_183" result="shape"/>
</filter>
<filter id="filter1_d_26_183" x="280" y="173.5" width="56.5" height="83" filterUnits="userSpaceOnUse" color-interpolation-filters="sRGB">
<feFlood flood-opacity="0" result="BackgroundImageFix"/>
<feColorMatrix in="SourceAlpha" type="matrix" values="0 0 0 0 0 0 0 0 0 0 0 0 0 0 0 0 0 0 127 0" result="hardAlpha"/>
<feOffset dx="1"/>
<feGaussianBlur stdDeviation="2"/>
<feComposite in2="hardAlpha" operator="out"/>
<feColorMatrix type="matrix" values="0 0 0 0 0 0 0 0 0 0 0 0 0 0 0 0 0 0 0.25 0"/>
<feBlend mode="normal" in2="BackgroundImageFix" result="effect1_dropShadow_26_183"/>
<feBlend mode="normal" in="SourceGraphic" in2="effect1_dropShadow_26_183" result="shape"/>
</filter>
<clipPath id="clip0_26_183">
<rect width="27.109" height="28" fill="white" transform="translate(247.156 106.123) rotate(-4.26005)"/>
</clipPath>
</defs>
</svg>
