<svg width="300" height="300" viewBox="0 0 300 300" fill="none" xmlns="http://www.w3.org/2000/svg">
<path d="M149.96 99.9768C122.417 99.9768 99.9393 122.454 99.9393 149.997C99.9393 177.54 122.417 200.018 149.96 200.018C177.503 200.018 199.98 177.54 199.98 149.997C199.98 122.454 177.503 99.9768 149.96 99.9768ZM299.983 149.997C299.983 129.284 300.171 108.758 299.008 88.0815C297.844 64.0657 292.366 42.7517 274.804 25.1902C257.205 7.59114 235.929 2.15007 211.913 0.986802C191.199 -0.176462 170.673 0.0111615 149.997 0.0111615C129.284 0.0111615 108.758 -0.176462 88.0815 0.986802C64.0658 2.15007 42.7517 7.62866 25.1902 25.1902C7.59114 42.7893 2.15007 64.0657 0.986802 88.0815C-0.176462 108.795 0.0111615 129.321 0.0111615 149.997C0.0111615 170.673 -0.176462 191.237 0.986802 211.913C2.15007 235.929 7.62867 257.243 25.1902 274.804C42.7893 292.403 64.0658 297.844 88.0815 299.008C108.795 300.171 129.321 299.983 149.997 299.983C170.711 299.983 191.237 300.171 211.913 299.008C235.929 297.844 257.243 292.366 274.804 274.804C292.403 257.205 297.844 235.929 299.008 211.913C300.208 191.237 299.983 170.711 299.983 149.997V149.997ZM149.96 226.96C107.369 226.96 72.9966 192.588 72.9966 149.997C72.9966 107.407 107.369 73.0341 149.96 73.0341C192.55 73.0341 226.923 107.407 226.923 149.997C226.923 192.588 192.55 226.96 149.96 226.96ZM230.075 87.8564C220.131 87.8564 212.101 79.8261 212.101 69.8821C212.101 59.938 220.131 51.9078 230.075 51.9078C240.019 51.9078 248.049 59.938 248.049 69.8821C248.052 72.2433 247.589 74.582 246.687 76.764C245.785 78.9461 244.461 80.9288 242.791 82.5984C241.122 84.2681 239.139 85.592 236.957 86.4942C234.775 87.3964 232.436 87.8593 230.075 87.8564V87.8564Z" fill="#1E1E1E"/>
</svg>
