<svg width="300" height="300" viewBox="0 0 300 300" fill="none" xmlns="http://www.w3.org/2000/svg">
<path d="M58.7888 0C26.4596 0 0 26.459 0 58.7888V241.221C0 273.55 26.459 300 58.7888 300H241.221C273.55 300 300 273.55 300 241.221V58.7888C300 26.4596 273.55 0 241.221 0H58.7888ZM73.5751 49.506C89.0762 49.506 98.6243 59.6823 98.919 73.0588C98.919 86.14 89.0756 96.6023 73.2752 96.6023H72.9844C57.7783 96.6023 47.9499 86.1406 47.9499 73.0588C47.9499 59.6826 58.076 49.506 73.5751 49.506ZM207.157 112.026C236.969 112.026 259.317 131.511 259.317 173.384V251.553H214.012V178.625C214.012 160.299 207.455 147.796 191.059 147.796C178.542 147.796 171.081 156.223 167.806 164.364C166.609 167.276 166.315 171.344 166.315 175.418V251.553H121.009C121.009 251.553 121.604 128.015 121.009 115.223H166.324V134.529C172.345 125.24 183.114 112.026 207.157 112.026ZM50.6222 115.233H95.9279V251.553H50.6222V115.233Z" fill="#1E1E1E"/>
</svg>
