<svg width="918" height="1310" viewBox="0 0 918 1310" fill="none" xmlns="http://www.w3.org/2000/svg">
<g clip-path="url(#clip0_28_188)">
<path d="M831.224 1283.4L807.246 1262.84L804.963 1317.65L849.493 1322.22L831.224 1283.4Z" fill="#D8D2C3"/>
<path d="M497.821 1270.84H469.276V1318.79H529.791H569.754H607.433L645.112 1313.08L683.933 1303.95L722.754 1279.97L721.612 1218.31L714.761 1224.02L699.918 1237.72L658.814 1246.86L591.448 1265.13L548.06 1273.12H518.373L497.821 1270.84Z" fill="#3A3A3A"/>
<path d="M556.052 1307.37L476.127 1311.94V1323.36L721.612 1333.63V1278.83L685.075 1287.96L658.814 1297.1L556.052 1307.37Z" fill="#D8D2C3"/>
<path d="M567.47 1310.8V1270.84L642.828 1245.72L640.545 1254.85V1301.66L567.47 1310.8Z" fill="#A3A3A3"/>
<path d="M424.746 250.075C427.03 247.791 430.455 246.649 430.455 246.649C430.455 246.649 435.023 244.366 438.448 244.366C441.873 244.366 455.575 246.649 455.575 246.649L461.284 253.5L464.709 275.194L469.276 298.03L472.702 307.164L474.985 327.716V334.567L471.56 337.993C470.418 339.134 462.426 341.418 459 340.276C455.575 339.134 452.149 336.851 449.866 334.567C447.582 332.284 447.582 327.716 446.441 325.433C445.299 323.149 440.732 312.873 439.59 308.306C438.448 303.739 436.164 301.455 436.164 298.03C436.164 294.605 431.597 290.037 430.455 287.754C429.314 285.47 425.888 278.619 424.746 275.194C423.605 271.769 422.463 263.776 422.463 261.493C422.463 259.209 422.463 252.358 424.746 250.075Z" fill="#D0B08F"/>
<path d="M453.291 441.895L444.156 452.172L438.448 455.597L435.022 465.873L433.88 478.433L437.306 487.567L446.44 501.269L454.433 510.403L469.276 528.672L496.679 557.216L517.231 572.06L536.642 585.761L560.619 593.754H592.589L612 589.187L632.552 575.485L651.962 551.507L659.955 532.097L664.522 501.269L665 494L659 481.5L651.962 468.157L646.5 452V436V429.5L647.395 415.634L642.828 419.06L632.552 430.478L616.567 437.328L584.597 441.895L561.761 437.328L548.059 430.478L528.5 415.634L521.798 405L506.955 397L498.5 378.5L479.552 352V376.813L474.985 401.933L464.709 424.769L453.291 441.895Z" fill="#E6C3A0"/>
<path d="M480.5 345.5C480.5 345.5 504 402 508 406C512 410 535 423 542 428.5C549 434 573.5 439 581.5 440.5C589.5 442 621.5 437 629.5 431C637.5 425 643 418 643 418" stroke="black" stroke-opacity="0.2" stroke-width="10" stroke-linecap="round"/>
<path d="M477 351C475.5 347 473.843 339.134 473.843 339.134L456.716 250.075L445.298 226.097L451.007 134.754L518.373 110.776L602.865 98.2163L646.254 106.209L673.657 184.992L687.358 234.089L689.642 250.075V274.052L687.358 292.321L685.074 311.731L680.507 340.276L677.082 361.97L669.089 385.948C669.089 385.948 661.91 402.716 659.955 405.358C658 408 655.641 412.836 650.821 417.918C646 423 645.089 421.821 640.545 425.91C636 430 636.321 430.306 631.41 433.903C626.5 437.5 621.35 437.724 615.425 439.612C609.5 441.5 597.5 444.179 592.589 444.179H582.313C576.127 444.179 563 439.612 559.477 438.47C555.955 437.328 555.799 436.597 549.5 435C543.201 433.403 545 433 541.209 431.619C537.418 430.239 526 422 526 422C526 422 514.5 414.5 510.127 409.925C505.754 405.351 501.948 397.366 501.948 397.366C501.948 397.366 492.254 380.328 491 377.5C489.746 374.672 486.5 370.5 485 367.5C483.5 364.5 478.5 355 477 351Z" fill="#EAC5A1"/>
<path d="M717.045 1281.11L705.627 1229.73L686.216 1236.58L698.776 1285.68L717.045 1281.11Z" fill="#D8D2C3"/>
<path d="M569.638 372.246L559.478 365.253L583.141 364.254L597.769 366.252L607.896 365.253L619.149 366.252L625.701 367.679H629.127L640.545 364.254L630.401 372.246L624.775 375.243L612.397 378.241L596.644 380.239L586.516 378.241L577.515 375.243L569.638 372.246Z" fill="#9A6A6D"/>
<path d="M569.609 364.429L559.478 365.396L570.735 368.821L579.74 366.186H587.62L596.626 367.943L606.757 366.186H616.889L623.643 367.943H631.523L640.545 364.429L635.978 363.112L631.523 362.673L625.894 359.16L616.889 357.403H611.26L602.254 359.16H593.249L587.62 357.403L579.74 359.16L569.609 364.429Z" fill="#AF797D"/>
<path d="M723.895 1216.09L713.619 1225.18L710.194 1227.45L714.761 1205.87L710.194 952.628L702.201 828.846L682.791 644.875V597.179L686.216 599.45L723.895 751.623L735.313 859.507V1102.53L723.895 1216.09Z" fill="#3A3A3A"/>
<path d="M36.5373 1209.18L85.6343 1075.59L114.179 1093.86V1133.82L123.313 1172.64L129.022 1209.18L148.433 1278.83L163.276 1322.22H0L15.9851 1271.98L36.5373 1209.18Z" fill="#D8D2C3"/>
<path d="M313.993 509.261L296.866 517.254L292.299 519.537L311.709 537.806L323.127 559.5L332.261 588.045V622.299L329.978 672.537L316.276 762.739L299.149 886.052L276.313 1003.66L251.194 1084.72L239.776 1091.57L235.209 1112.13L239.776 1128.11L253.478 1171.5L268.321 1230.87L279.739 1290.25L283.164 1319.93H293.44L298.007 1278.83L323.127 1171.5L329.978 1150.95L323.127 1136.1L329.978 1123.54L319.702 1105.28L313.993 1080.16L311.709 1048.19L313.993 1003.66L327.694 903.179L335.687 847.231L350.53 762.739L358.522 667.97V617.731L356.239 583.478V567.493L349.388 546.94L335.687 525.246L327.694 517.254L313.993 509.261Z" fill="#D8D2C3"/>
<path d="M445.299 433.903L438.448 455.597L452.149 447.605L472.701 420.202L474.985 398.508L471.56 400.791L454.433 419.06L445.299 433.903Z" fill="#3A3A3A"/>
<path d="M243.201 1087.01L113.037 1090.43V1134.96L117.604 1153.23L123.313 1185.2L132.448 1224.02L145.007 1273.12L160.992 1319.93H282.022V1305.09L269.462 1234.3L254.619 1171.5L235.209 1112.13L243.201 1087.01Z" fill="#E5C3A0"/>
<path d="M822.089 952.276L783.269 959.127L804.963 1260.56L830.082 1282.25L826.657 1245.72L830.082 1160.08V1105.28V1050.47L824.373 1017.36L822.089 952.276Z" fill="#E5C3A0"/>
<path d="M680.507 513.828L665.5 495L662.239 513.828L665.664 524.104L671.373 536.664L680.507 568.634L689.642 559.5L680.507 513.828Z" fill="#3A3A3A"/>
<path d="M433.881 477.433V472.866L430.455 493.418L425.888 563.067V609.881L422.463 628.149V640.709V668.112V680.672L430.455 700.082V709.216L432.739 752.605L436.164 803.985V859.5L440.732 920L446.441 953.56V1023.5L455.5 1094.5V1152.5L460.142 1190.5L466.993 1233L472.702 1269.84L484.12 1272.12L516 1274.5L559 1273L574.321 1269.84L609.717 1258.42L658.814 1247L699.918 1236.72L709.052 1228.73L721.612 1217.31V1186.49V1131.68L715.903 1043.76L707.911 896.47L704.485 823.396L694.209 740.045L685.075 660.119V642.993L683 582.478V565.351L675.941 544.799L673.657 525.388L665 493L661.097 521.963L657.672 537.948L639.403 565.351L619.993 582.478L598.299 591.612H562.903L540.067 585.903L504.672 563.067L476.127 535.664L446.441 501.41L433.881 477.433Z" fill="#F4F4F4"/>
<path d="M340.254 498.985L384.784 472.724L356.239 588.045L351.672 564.067L340.254 534.381L327.694 518.7L313.993 509.261L301.433 514.97L292.299 519.537L306 525.246L323.127 550.366L333.403 575.485V601.746V633.716V675.963L318.56 770.731L312.851 830.104L296.866 911.172L283.164 983.104L275.172 1015.07L261.47 1051.61L251.194 1088.15L224.933 1093.86H166.702H119.888L74.2165 1079.01L63.9404 1063.03L74.2165 1023.07L102.761 888.336L135.873 752.463L170.127 637.142L191.821 601.746L226.075 564.067L250.052 538.948L292.299 519.537L301.433 514.97L313.993 509.261L340.254 498.985Z" fill="#5D6C58"/>
<path d="M422.463 624.582H358.523V661.119L353.955 705.649L339.112 777.582L326.552 874.634L313.993 979.679L311.709 1029.92V1052.75V1071.02V1082.44L317.418 1099.57L323.127 1121.26V1134.96V1154.37L320.843 1171.5L311.709 1227.45L296.866 1278.83L293.44 1321.07L477.269 1317.65L471.56 1258.28L462.425 1150.95L451.008 1002.51L439.59 858.649L430.455 719.351L427.03 642.851L422.463 624.582Z" fill="#5D6C58"/>
<g filter="url(#filter0_d_28_188)">
<path d="M455.575 406.5L474.985 397.366L447.582 431.619L437.306 457.881L431.597 480.716V498.985V530.955L428.172 560.642L424.746 600.605V625.724H406.478H384.784H352.813L347.104 617.731L352.813 596.037L358.522 567.493L366.515 524.105L374.507 489.851L384.784 465.873L390.493 457.881L406.478 446.463L437.306 420.202L455.575 406.5Z" fill="#5D6C58"/>
</g>
<path d="M720.47 1227.45L715.903 1318.79H816.381L810.672 1267.41L785.552 960.269L816.381 956.843L918 931.724L896.306 847.231L876.896 751.321L848.351 634.858L830.082 580.052L810.672 558.358L783.269 537.806L735.314 505.836L691.926 484.142L753.582 534.381L715.903 558.358L682.5 600.5L691.926 642.851L711.336 774.157L721.612 897.47L727.321 945.425V1018.5V1118.98L720.47 1227.45Z" fill="#5D6C58"/>
<g filter="url(#filter1_d_28_188)">
<path d="M656.53 444.179L646.5 429.5L646.254 452.172L651.963 468.157L664.523 493.276L677.082 516.112L681.649 543.515V561.784L682.791 600.605L697.635 583.478L707.911 568.634L738.739 550.366L754.724 538.948L757.008 535.523L755.866 532.097L747.873 526.388L723.896 506.978L691.926 481.858L672.515 461.306L656.53 444.179Z" fill="#5D6C58"/>
</g>
<path d="M782.127 899.754L785.552 960.269L796.97 959.127L794.687 881.485L788.978 830.104L767.284 747.896V787.858L776.418 847.231L782.127 899.754Z" fill="#3A3A3A"/>
<path d="M508.097 1323.36L520.657 1273.12H498.963L484.12 1321.07L508.097 1323.36Z" fill="#D8D2C3"/>
<g clip-path="url(#clip1_28_188)">
<path d="M582.007 321.151C581.472 321.39 580.843 321.149 580.605 320.609C580.366 320.068 580.607 319.445 581.147 319.207C582.274 318.705 584.807 319.445 587.34 320.452C589.685 321.388 592.082 322.535 593.143 323.056C596.024 324.459 598.556 324.625 600.774 324.21C603.039 323.79 605.033 322.76 606.743 321.819C607.52 321.39 608.477 320.724 609.494 320.022C611.99 318.292 614.773 316.357 616.818 316.628C617.398 316.705 617.808 317.238 617.731 317.817C617.654 318.397 617.121 318.807 616.541 318.73C615.303 318.567 612.877 320.25 610.699 321.764C609.642 322.5 608.635 323.196 607.768 323.673C605.908 324.693 603.732 325.815 601.159 326.294C598.539 326.781 595.567 326.596 592.215 324.962C591.176 324.455 588.827 323.325 586.558 322.42C584.466 321.594 582.502 320.932 582.007 321.151ZM585.065 266.021C585.132 265.385 585.708 264.919 586.344 264.986C586.981 265.054 587.446 265.63 587.379 266.266L586.796 271.538C586.793 271.569 586.79 271.601 586.782 271.628C586.39 274.292 585.879 276.746 585.377 279.178C584.426 283.783 583.485 288.31 583.507 293.228C583.514 294.798 583.601 295.898 583.67 296.749C583.943 300.141 583.956 300.307 579.756 304.1C576.647 306.909 576.659 307.238 575.269 309.455C573.921 311.601 573.27 313.575 573.095 315.576C572.888 317.971 573.545 320.004 574.79 321.513C576.098 323.106 575.52 324.747 577.82 325.019C578.72 325.125 580.046 326.62 580.993 326.596C581.957 326.571 582.958 326.486 583.976 326.353C584.612 326.274 585.198 326.726 585.277 327.362C585.356 327.998 584.904 328.585 584.268 328.664C583.182 328.802 582.104 328.231 581.052 328.262C579.985 328.289 578.889 327.234 577.894 327.115C574.988 326.773 574.683 325.048 572.99 322.993C571.378 321.031 570.516 318.419 570.78 315.378C570.984 313.009 571.741 310.704 573.299 308.224C574.816 305.816 574.932 305.32 578.197 302.369C581.551 299.338 581.543 299.229 581.356 296.931C581.283 296.019 581.19 294.836 581.181 293.25C581.161 288.07 582.12 283.433 583.098 278.711C583.609 276.252 584.123 273.767 584.487 271.292L585.065 266.021ZM603.398 265.078C603.237 264.459 603.607 263.821 604.231 263.659C604.851 263.498 605.489 263.868 605.65 264.493L607.008 269.62C607.734 272.013 608.611 274.395 609.48 276.751C611.147 281.271 612.783 285.72 613.53 290.846C613.757 292.415 613.84 293.599 613.903 294.512C614.058 296.812 613.737 296.884 614.325 298.761C614.912 300.638 617.909 303.681 619.766 305.844C621.674 308.065 622.764 310.233 623.317 312.545C624.029 315.513 623.568 318.224 622.259 320.404C620.89 322.692 618.6 324.376 615.777 325.144C614.805 325.41 619.998 325.976 618.938 326.107C617.894 326.237 616.824 326.307 615.73 326.325C615.089 326.342 614.556 325.834 614.539 325.188C614.522 324.547 615.03 324.014 615.676 323.997C616.703 323.978 617.7 323.914 618.662 323.795C619.602 323.678 614.301 323.13 615.176 322.893C617.411 322.283 619.202 320.976 620.265 319.206C621.268 317.529 621.617 315.421 621.056 313.084C620.587 311.131 619.651 309.275 618 307.353C616.297 305.366 616.221 304.407 613.04 300.704C611.654 296.57 611.82 298.07 611.587 294.674C611.529 293.823 611.453 292.728 611.227 291.169C610.52 286.301 608.924 281.964 607.296 277.551C606.439 275.219 605.57 272.868 604.788 270.292C604.781 270.261 604.768 270.236 604.761 270.205L603.398 265.078Z" fill="#C5AE99"/>
</g>
<path d="M574.215 136.99L599.439 134.268L594.872 80.7437L594.872 69.3257L574.215 55.6242L542.349 51.057L482.522 75.4087L441.25 101.192L427.063 134.268L423.439 167.349L423.439 215.821L431.226 243.224L469.37 291.344L482.522 224.955L485.561 161.377L492.21 136.68L517.812 111.41L560.929 107.87L574.215 136.99Z" fill="#877E6C"/>
<path d="M604.443 134.161L585.535 131.65L593.238 82.2703L595.806 69.6296L604.443 59.0497L624.558 59.0497L673.177 77.3484L704.114 101.136L710.192 131.65L710.192 166.378L710.192 211.614L706.767 248.587L691.166 273.5L683.035 211.614L670.899 156.66L665.914 133.876L646.723 110.563L614.403 107.296L604.443 134.161Z" fill="#877E6C"/>
<path d="M584.748 113.278L593.73 118.416L580.257 84.1603L524.798 75.0347L492.682 91.0115L464.708 104.721L458.999 135.544L451.006 161.811L458.999 194.923L474.718 247.445L485.26 277.132L503.529 184.647L514.947 142.4V126.415L530.932 107.005L566.784 97.8627L584.748 113.278Z" fill="#938975"/>
<path d="M602.625 116.888L596.014 121.591L605.93 90.2377L646.748 81.8855L670.386 96.5083L690.974 109.056L695.176 137.267L701.059 161.308L695.176 191.614L690.974 240.594L688.499 257.721L662.402 182.208L653.999 143.542V128.912L642.234 111.146L615.846 102.779L602.625 116.888Z" fill="#938975"/>
<path d="M584.748 106.427L593.73 111.566L584.748 75.0348L557.193 56.7661H530.932L502.387 77.3184L463.49 106.427L458.999 128.694L463.49 149.247L474.718 181.791L492.682 207.483L530.932 216.617L524.798 174.371L514.947 135.55V119.565L530.932 100.154L566.784 91.012L584.748 106.427Z" fill="#AC9F87"/>
<path d="M597.993 106.738L591.447 111.436L597.993 78.036L618.075 61.3333H637.215L658.019 80.1239L686.367 106.738L689.641 127.096L686.367 145.887L683.932 181.221L673.656 202.915L678.223 230.318L653.103 170.945L648.865 133.364V118.749L637.215 101.002L611.085 92.6438L597.993 106.738Z" fill="#AC9F87"/>
<path d="M589.163 129.841L598.297 140.117L596.014 120.706L572.036 113.855L551.484 125.273L536.641 140.117V168.661L545.775 188.072L562.902 199.49L554.909 181.221L545.775 159.527L554.909 140.117L572.036 129.841H589.163Z" fill="#A99A84"/>
<path d="M589.163 141.259L598.297 151.535L596.014 132.124L572.036 125.273L551.484 136.691L536.641 151.535V180.079L545.775 199.49L562.902 210.908L554.909 192.639L545.775 170.945L554.909 151.535L572.036 141.259H589.163Z" fill="#B9A98B"/>
<path d="M598.145 118.673L594.872 112.714L598.145 94.4451L636.662 79.6018L666.805 96.5894L688.575 118.673L691.924 140.757L688.575 161.142L680.202 193.419L661.781 218.9V179.829L675.178 147.552L661.781 118.673L636.662 103.384H611.542L598.145 118.673Z" fill="#A3957B"/>
<path d="M580.005 107.255L575.462 101.296L580.005 83.0271L633.475 68.1838L675.321 85.1715L705.543 107.255L710.193 129.339L705.543 149.724L693.919 182.001L668.347 207.482V168.411L686.945 136.134L668.347 107.255L633.475 91.9665H598.604L580.005 107.255Z" fill="#9D917A"/>
<path d="M595.253 125.329L589.163 129.506L598.297 101.658L630.268 93.3032L657.671 107.228L677.462 125.329L680.506 143.431L677.462 160.14L669.85 186.596L653.103 207.482V175.456L665.282 149L653.103 125.329L630.268 112.797H607.432L595.253 125.329Z" fill="#A99A84"/>
<path d="M607.77 129.627L598.297 139.767L600.666 120.615L625.531 113.855L646.845 125.121L662.238 139.767V167.931L652.765 187.082L635.004 198.348L643.293 180.323L652.765 158.918L643.293 139.767L625.531 129.627H607.77Z" fill="#A99A84"/>
<path d="M600.886 118.673L607.432 123.77L597.612 89.7944L557.193 80.7437L533.786 96.5895L512.511 118.673L509.238 140.757L512.511 161.142L520.694 193.419L538.696 218.9V179.829L525.603 147.552L538.696 118.673L563.245 103.385H587.793L600.886 118.673Z" fill="#9D917A"/>
<path d="M603.778 125.329L609.715 129.506L600.809 101.658L569.639 93.3032L542.921 107.228L523.624 125.329L520.656 143.431L523.624 160.14L531.046 186.596L547.374 207.482V175.456L535.499 149L547.374 125.329L569.639 112.797H591.904L603.778 125.329Z" fill="#A99A84"/>
<path d="M597.841 130.982L602.865 134.408L595.329 111.572L568.953 104.721L546.346 116.139L530.018 130.982L527.506 145.826L530.018 159.527L536.298 181.221L550.114 198.348V172.087L540.066 150.393L550.114 130.982L568.953 120.706H587.793L597.841 130.982Z" fill="#B9A98B"/>
<path d="M614.171 246.482C614.412 243.834 616.823 241.642 618.544 239.921C620.155 238.311 621.523 235.859 623.598 234.673C628.181 232.054 633.006 231.535 637.788 229.522C640.57 228.351 644.976 228.113 647.945 228.113C651.775 228.113 655.606 228.113 659.437 228.113C661.067 228.113 663.807 228.644 665.123 229.668C666.331 230.608 668.186 232.486 669.715 232.486" stroke="#AC9F87" stroke-width="6.85075" stroke-linecap="round"/>
<path d="M567.811 247.356C566.586 243.682 562.056 241.269 559.72 238.415C558.011 236.326 555.748 234.84 553.597 233.167C550.068 230.422 545.634 228.987 541.229 228.987C535.221 228.987 529.123 228.706 523.176 229.449C521.45 229.665 520.002 230.811 518.39 231.271C516.191 231.9 513.659 232.96 511.829 234.333C509.873 235.801 508.129 236.894 505.901 237.978C504.535 238.642 503.387 239.769 502.208 240.359" stroke="#AC9F87" stroke-width="6.85075" stroke-linecap="round"/>
<path d="M625.519 266.034C623.568 265.916 612.995 263.282 612.995 263.282C612.995 263.282 615.717 258.098 618.185 255.696C620.654 253.295 624.772 249.782 628.033 249.228C631.295 248.675 634.467 247.159 638.12 247.371C641.774 247.583 644.138 247.891 646.257 247.95C648.377 248.009 653.802 249.319 655.571 250.186C657.339 251.053 664.35 261.125 664.35 261.125C664.35 261.125 660.326 263.032 657.711 263.462C655.096 263.892 651.939 265.709 648.695 265.729C645.452 265.749 641.34 267.248 638.054 266.815C634.768 266.382 627.469 266.153 625.519 266.034Z" fill="white"/>
<path d="M626.518 260.269C626.943 261.547 629.232 266.327 629.232 266.327C629.232 266.327 632.651 266.54 634.213 266.606C635.767 266.673 636.902 266.743 639.156 266.883L639.194 266.886C641.473 267.028 644.963 266.101 644.963 266.101C644.963 266.101 647.526 261.684 647.668 259.405C647.81 257.126 648 256.595 647.952 254.847C647.904 253.099 646.098 247.868 646.098 247.868C646.098 247.868 643.819 247.726 641.54 247.584C639.261 247.442 639.261 247.442 636.981 247.3C634.702 247.158 634.375 247.615 632.352 248.156C630.33 248.697 628.033 249.229 628.033 249.229C628.033 249.229 626.296 254.294 626.191 255.606C626.087 256.918 626.094 258.991 626.518 260.269Z" fill="#81AFD9"/>
<circle cx="636.414" cy="256.417" r="3.42537" transform="rotate(3.56196 636.414 256.417)" fill="#201F1D"/>
<path d="M529.753 266.855C527.814 266.613 517.43 263.31 517.43 263.31C517.43 263.31 520.478 258.309 523.095 256.071C525.711 253.832 530.045 250.589 533.335 250.244C536.625 249.9 539.888 248.59 543.52 249.034C547.153 249.479 549.492 249.938 551.604 250.132C553.715 250.326 559.046 251.98 560.755 252.957C562.465 253.935 568.819 264.435 568.819 264.435C568.819 264.435 564.681 266.081 562.044 266.343C559.406 266.606 556.14 268.217 552.902 268.03C549.664 267.843 545.464 269.076 542.213 268.434C538.962 267.793 531.692 267.098 529.753 266.855Z" fill="white"/>
<path d="M531.119 261.165C531.461 262.468 533.441 267.384 533.441 267.384C533.441 267.384 536.839 267.815 538.394 267.981C539.94 268.146 541.068 268.289 543.308 268.573L543.346 268.578C545.612 268.865 549.154 268.163 549.154 268.163C549.154 268.163 551.993 263.919 552.28 261.654C552.567 259.388 552.791 258.87 552.855 257.123C552.918 255.376 551.45 250.039 551.45 250.039C551.45 250.039 549.184 249.752 546.919 249.465C544.654 249.178 544.654 249.178 542.388 248.891C540.123 248.604 539.767 249.039 537.714 249.45C535.661 249.86 533.335 250.244 533.335 250.244C533.335 250.244 531.278 255.188 531.09 256.491C530.902 257.794 530.777 259.863 531.119 261.165Z" fill="#81AFD9"/>
<circle cx="541.24" cy="257.953" r="3.42537" transform="rotate(7.22161 541.24 257.953)" fill="#201F1D"/>
<path d="M593.732 134.754L599.364 142.746L598.171 130.811L605.302 124.478H626.996L648.69 134.754L660.26 154.164L648.69 175.858V202.119L664.599 184.992L671.83 163.298L674.723 149.597L671.83 134.754L653.029 119.91L626.996 108.492L596.624 115.343L598.171 130.811L593.732 134.754Z" fill="#B9A98B"/>
<path d="M605.487 137.966L596.015 148.105L598.383 128.953L623.249 122.194L644.562 133.46L659.955 148.105V176.269L650.482 195.421L632.721 206.687L641.01 188.662L650.482 167.257L641.01 148.105L623.249 137.966H605.487Z" fill="#B9A98B"/>
</g>
<defs>
<filter id="filter0_d_28_188" x="306" y="367.679" width="191.821" height="292.298" filterUnits="userSpaceOnUse" color-interpolation-filters="sRGB">
<feFlood flood-opacity="0" result="BackgroundImageFix"/>
<feColorMatrix in="SourceAlpha" type="matrix" values="0 0 0 0 0 0 0 0 0 0 0 0 0 0 0 0 0 0 127 0" result="hardAlpha"/>
<feOffset dx="-9.13433" dy="2.28358"/>
<feGaussianBlur stdDeviation="15.9851"/>
<feComposite in2="hardAlpha" operator="out"/>
<feColorMatrix type="matrix" values="0 0 0 0 0 0 0 0 0 0 0 0 0 0 0 0 0 0 0.25 0"/>
<feBlend mode="normal" in2="BackgroundImageFix" result="effect1_dropShadow_28_188"/>
<feBlend mode="normal" in="SourceGraphic" in2="effect1_dropShadow_28_188" result="shape"/>
</filter>
<filter id="filter1_d_28_188" x="639.403" y="420.366" width="129.023" height="189.373" filterUnits="userSpaceOnUse" color-interpolation-filters="sRGB">
<feFlood flood-opacity="0" result="BackgroundImageFix"/>
<feColorMatrix in="SourceAlpha" type="matrix" values="0 0 0 0 0 0 0 0 0 0 0 0 0 0 0 0 0 0 127 0" result="hardAlpha"/>
<feOffset dx="2.28358"/>
<feGaussianBlur stdDeviation="4.56716"/>
<feComposite in2="hardAlpha" operator="out"/>
<feColorMatrix type="matrix" values="0 0 0 0 0 0 0 0 0 0 0 0 0 0 0 0 0 0 0.25 0"/>
<feBlend mode="normal" in2="BackgroundImageFix" result="effect1_dropShadow_28_188"/>
<feBlend mode="normal" in="SourceGraphic" in2="effect1_dropShadow_28_188" result="shape"/>
</filter>
<clipPath id="clip0_28_188">
<rect width="918" height="1309.63" fill="white"/>
</clipPath>
<clipPath id="clip1_28_188">
<rect width="61.9057" height="63.9403" fill="white" transform="translate(564.4 266.34) rotate(-4.26005)"/>
</clipPath>
</defs>
</svg>
