<svg width="1562" height="1562" viewBox="0 0 1562 1562" fill="none" xmlns="http://www.w3.org/2000/svg">
<rect width="1562" height="1562" rx="781" fill="#909B8C"/>
<path d="M1073.22 1511.4L1049.25 1490.84L1046.96 1545.65L1091.49 1550.22L1073.22 1511.4Z" fill="#D8D2C3"/>
<path d="M739.821 1498.84H711.276V1546.79H771.791H811.754H849.433L887.112 1541.08L925.933 1531.95L964.754 1507.97L963.612 1446.31L956.761 1452.02L941.918 1465.72L900.814 1474.86L833.448 1493.13L790.06 1501.12H760.373L739.821 1498.84Z" fill="#3A3A3A"/>
<path d="M798.052 1535.37L718.127 1539.94V1551.36L963.612 1561.63V1506.83L927.075 1515.96L900.814 1525.1L798.052 1535.37Z" fill="#D8D2C3"/>
<path d="M809.47 1538.8V1498.84L884.828 1473.72L882.545 1482.85V1529.66L809.47 1538.8Z" fill="#A3A3A3"/>
<path d="M666.746 478.075C669.03 475.791 672.455 474.649 672.455 474.649C672.455 474.649 677.023 472.366 680.448 472.366C683.873 472.366 697.575 474.649 697.575 474.649L703.284 481.5L706.709 503.194L711.276 526.03L714.702 535.164L716.985 555.716V562.567L713.56 565.993C712.418 567.134 704.426 569.418 701 568.276C697.575 567.134 694.149 564.851 691.866 562.567C689.582 560.284 689.582 555.716 688.441 553.433C687.299 551.149 682.732 540.873 681.59 536.306C680.448 531.739 678.164 529.455 678.164 526.03C678.164 522.605 673.597 518.037 672.455 515.754C671.314 513.47 667.888 506.619 666.746 503.194C665.605 499.769 664.463 491.776 664.463 489.493C664.463 487.209 664.463 480.358 666.746 478.075Z" fill="#C9AE93"/>
<path d="M695.291 669.895L686.156 680.172L680.448 683.597L677.022 693.873L675.88 706.433L679.306 715.567L688.44 729.269L696.433 738.403L711.276 756.672L738.679 785.216L759.231 800.06L778.642 813.761L802.619 821.754H834.589L854 817.187L874.552 803.485L893.962 779.507L901.955 760.097L906.522 729.269V723.56L899.671 709.858L893.962 696.157L887.112 681.313V664.187L889.395 643.634L884.828 647.06L874.552 658.478L858.567 665.328L826.597 669.895L803.761 665.328L790.059 658.478L763.798 652.769L748.955 643.634L735.254 624.224L726.119 608.239L721.552 587.687V604.813L716.985 629.933L706.709 652.769L695.291 669.895Z" fill="#C9AE93"/>
<path d="M721.552 591.112L715.843 567.134L698.716 478.075L687.298 454.097L693.007 362.754L760.373 338.776L844.865 326.216L888.254 334.209L915.657 412.992L929.358 462.089L931.642 478.075V502.052L929.358 520.321L927.074 539.731L922.507 568.276L919.082 589.97L911.089 613.948L901.955 633.358L892.821 645.918L882.545 653.91L873.41 661.903L857.425 667.612L834.589 672.179H824.313L801.477 666.47L791.201 661.903L783.209 659.619L760.373 653.91L746.671 643.634L739.821 633.358L726.119 611.664L723.836 602.53L721.552 591.112Z" fill="#D9BCA1"/>
<path d="M959.045 1509.11L947.627 1457.73L928.216 1464.58L940.776 1513.68L959.045 1509.11Z" fill="#D8D2C3"/>
<path d="M811.638 600.246L801.478 593.253L825.141 592.254L839.769 594.252L849.896 593.253L861.149 594.252L867.701 595.679H871.127L882.545 592.254L872.401 600.246L866.775 603.243L854.397 606.241L838.644 608.239L828.516 606.241L819.515 603.243L811.638 600.246Z" fill="#7B4D50"/>
<path d="M811.609 592.429L801.478 593.396L812.735 596.821L821.74 594.186H829.62L838.626 595.943L848.757 594.186H858.889L865.643 595.943H873.523L882.545 592.429L877.978 591.112L873.523 590.673L867.894 587.16L858.889 585.403H853.26L844.254 587.16H835.249L829.62 585.403L821.74 587.16L811.609 592.429Z" fill="#8E5D60"/>
<path d="M965.895 1444.09L955.619 1453.18L952.194 1455.45L956.761 1433.87L952.194 1180.63L944.201 1056.85L924.791 872.875V825.179L928.216 827.45L965.895 979.623L977.313 1087.51V1330.53L965.895 1444.09Z" fill="#717171"/>
<path d="M278.537 1437.18L327.634 1303.59L356.179 1321.86V1361.82L365.313 1400.64L371.022 1437.18L390.433 1506.83L405.276 1550.22H242L257.985 1499.98L278.537 1437.18Z" fill="#D8D2C3"/>
<path d="M555.993 737.261L538.866 745.254L534.299 747.537L553.709 765.806L565.127 787.5L574.261 816.045V850.299L571.978 900.537L558.276 990.739L541.149 1114.05L518.313 1231.66L493.194 1312.72L481.776 1319.57L477.209 1340.13L481.776 1356.11L495.478 1399.5L510.321 1458.87L521.739 1518.25L525.164 1547.93H535.44L540.007 1506.83L565.127 1399.5L571.978 1378.95L565.127 1364.1L571.978 1351.54L561.702 1333.28L555.993 1308.16L553.709 1276.19L555.993 1231.66L569.694 1131.18L577.687 1075.23L592.53 990.739L600.522 895.97V845.731L598.239 811.478V795.493L591.388 774.94L577.687 753.246L569.694 745.254L555.993 737.261Z" fill="#D8D2C3"/>
<path d="M687.299 661.903L680.448 683.597L694.149 675.605L714.701 648.202L716.985 626.508L713.56 628.791L696.433 647.06L687.299 661.903Z" fill="#201F1D"/>
<path d="M485.201 1315.01L355.037 1318.43V1362.96L359.604 1381.23L365.313 1413.2L374.448 1452.02L387.007 1501.12L402.992 1547.93H524.022V1533.09L511.462 1462.3L496.619 1399.5L477.209 1340.13L485.201 1315.01Z" fill="#D9BCA1"/>
<path d="M1064.09 1180.28L1025.27 1187.13L1046.96 1488.56L1072.08 1510.25L1068.66 1473.72L1072.08 1388.08V1333.28V1278.47L1066.37 1245.36L1064.09 1180.28Z" fill="#C9AE93"/>
<path d="M922.507 741.828L907.664 725.843L904.239 741.828L907.664 752.104L913.373 764.664L922.507 796.634L931.642 787.5L922.507 741.828Z" fill="#201F1D"/>
<path d="M675.881 706.433V701.866L672.455 722.418L667.888 792.067V838.881L664.463 857.149V869.709V897.112V909.672L672.455 929.082V938.216L674.739 981.605L678.164 1032.99L682.732 1085.51L687.299 1149.45L688.441 1182.56L696.433 1254.49L702.142 1325.28L704.426 1380.09L708.993 1418.91L712.418 1463.44L714.702 1498.84L726.12 1501.12H758.09H801.478L816.321 1498.84L851.717 1487.42L900.814 1476L941.918 1465.72L951.052 1457.73L963.612 1446.31V1415.49V1360.68L957.903 1272.76L949.911 1125.47L946.485 1052.4L936.209 969.045L927.075 889.119V871.993L922.508 811.478V794.351L917.941 773.799L915.657 754.388L907.664 726.985L903.097 750.963L899.672 766.948L881.403 794.351L861.993 811.478L840.299 820.612H804.903L782.067 814.903L746.672 792.067L718.127 764.664L688.441 730.41L675.881 706.433Z" fill="#D9D9D9"/>
<path d="M582.254 726.985L626.784 700.724L598.239 816.045L593.672 792.067L582.254 762.381L569.694 746.7L555.993 737.261L543.433 742.97L534.299 747.537L548 753.246L565.127 778.366L575.403 803.485V829.746V861.716V903.963L560.56 998.731L554.851 1058.1L538.866 1139.17L525.164 1211.1L517.172 1243.07L503.47 1279.61L493.194 1316.15L466.933 1321.86H408.702H361.888L316.217 1307.01L305.94 1291.03L316.217 1251.07L344.761 1116.34L377.873 980.463L412.127 865.142L433.821 829.746L468.075 792.067L492.052 766.948L534.299 747.537L543.433 742.97L555.993 737.261L582.254 726.985Z" fill="#393F37"/>
<path d="M664.463 852.582H600.523V889.119L595.955 933.649L581.112 1005.58L568.552 1102.63L555.993 1207.68L553.709 1257.92V1280.75V1299.02V1310.44L559.418 1327.57L565.127 1349.26V1362.96V1382.37L562.843 1399.5L553.709 1455.45L538.866 1506.83L535.44 1549.07L719.269 1545.65L713.56 1486.28L704.425 1378.95L693.008 1230.51L681.59 1086.65L672.455 947.351L669.03 870.851L664.463 852.582Z" fill="#393F37"/>
<g filter="url(#filter0_d_26_186)">
<path d="M697.575 634.5L716.985 625.366L689.582 659.619L679.306 685.881L673.597 708.716V726.985V758.955L670.172 788.642L666.746 828.605V853.724H648.478H626.784H594.813L589.104 845.731L594.813 824.037L600.522 795.493L608.515 752.105L616.507 717.851L626.784 693.873L632.493 685.881L648.478 674.463L679.306 648.202L697.575 634.5Z" fill="#393F37"/>
</g>
<path d="M962.47 1455.45L957.903 1546.79H1058.38L1052.67 1495.41L1027.55 1188.27L1058.38 1184.84L1160 1159.72L1138.31 1075.23L1118.9 979.321L1090.35 862.858L1072.08 808.052L1052.67 786.358L1025.27 765.806L977.314 733.836L933.926 712.142L995.582 762.381L957.903 786.358L923.649 822.896L933.926 870.851L953.336 1002.16L963.612 1125.47L969.321 1173.43V1246.5V1346.98L962.47 1455.45Z" fill="#393F37"/>
<g filter="url(#filter1_d_26_186)">
<path d="M898.53 672.179L888.254 657.336V680.172L893.963 696.157L906.523 721.276L919.082 744.112L923.649 771.515V789.784L924.791 828.605L939.635 811.478L949.911 796.634L980.739 778.366L996.724 766.948L999.008 763.523L997.866 760.097L989.873 754.388L965.896 734.978L933.926 709.858L914.515 689.306L898.53 672.179Z" fill="#393F37"/>
</g>
<path d="M1024.13 1127.75L1027.55 1188.27L1038.97 1187.13L1036.69 1109.49L1030.98 1058.1L1009.28 975.896V1015.86L1018.42 1075.23L1024.13 1127.75Z" fill="#1F1E1C"/>
<path d="M750.097 1551.36L762.657 1501.12H740.963L726.12 1549.07L750.097 1551.36Z" fill="#D8D2C3"/>
<g clip-path="url(#clip0_26_186)">
<path d="M824.007 549.151C823.472 549.39 822.843 549.149 822.605 548.609C822.366 548.068 822.607 547.445 823.147 547.207C824.274 546.705 826.807 547.445 829.34 548.452C831.685 549.388 834.082 550.535 835.143 551.056C838.024 552.459 840.556 552.625 842.774 552.21C845.039 551.79 847.033 550.76 848.743 549.819C849.52 549.39 850.477 548.724 851.494 548.022C853.99 546.292 856.773 544.357 858.818 544.628C859.398 544.705 859.808 545.238 859.731 545.817C859.654 546.397 859.121 546.807 858.541 546.73C857.303 546.567 854.877 548.25 852.699 549.764C851.642 550.5 850.635 551.196 849.768 551.673C847.908 552.693 845.732 553.815 843.159 554.294C840.539 554.781 837.567 554.596 834.215 552.962C833.176 552.455 830.827 551.325 828.558 550.42C826.466 549.594 824.502 548.932 824.007 549.151ZM827.065 494.021C827.132 493.385 827.708 492.919 828.344 492.986C828.981 493.054 829.446 493.63 829.379 494.266L828.796 499.538C828.793 499.569 828.79 499.601 828.782 499.628C828.39 502.292 827.879 504.746 827.377 507.178C826.426 511.783 825.485 516.31 825.507 521.228C825.514 522.798 825.601 523.898 825.67 524.749C825.943 528.141 825.956 528.307 821.756 532.1C818.647 534.909 818.659 535.238 817.269 537.455C815.921 539.601 815.27 541.575 815.095 543.576C814.888 545.971 815.545 548.004 816.79 549.513C818.098 551.106 817.52 552.747 819.82 553.019C820.72 553.125 822.046 554.62 822.993 554.596C823.957 554.571 824.958 554.486 825.976 554.353C826.612 554.274 827.198 554.726 827.277 555.362C827.356 555.998 826.904 556.585 826.268 556.664C825.182 556.802 824.104 556.231 823.052 556.262C821.985 556.289 820.889 555.234 819.894 555.115C816.988 554.773 816.683 553.048 814.99 550.993C813.378 549.031 812.516 546.419 812.78 543.378C812.984 541.009 813.741 538.704 815.299 536.224C816.816 533.816 816.932 533.32 820.197 530.369C823.551 527.338 823.543 527.229 823.356 524.931C823.283 524.019 823.19 522.836 823.181 521.25C823.161 516.07 824.12 511.433 825.098 506.711C825.609 504.252 826.123 501.767 826.487 499.292L827.065 494.021ZM845.398 493.078C845.237 492.459 845.607 491.821 846.231 491.659C846.851 491.498 847.489 491.868 847.65 492.493L849.008 497.62C849.734 500.013 850.611 502.395 851.48 504.751C853.147 509.271 854.783 513.72 855.53 518.846C855.757 520.415 855.84 521.599 855.903 522.512C856.058 524.812 855.737 524.884 856.325 526.761C856.912 528.638 859.909 531.681 861.766 533.844C863.674 536.065 864.764 538.233 865.317 540.545C866.029 543.513 865.568 546.224 864.259 548.404C862.89 550.692 860.6 552.376 857.777 553.144C856.805 553.41 861.998 553.976 860.938 554.107C859.894 554.237 858.824 554.307 857.73 554.325C857.089 554.342 856.556 553.834 856.539 553.188C856.522 552.547 857.03 552.014 857.676 551.997C858.703 551.978 859.7 551.914 860.662 551.795C861.602 551.678 856.301 551.13 857.176 550.893C859.411 550.283 861.202 548.976 862.265 547.206C863.268 545.529 863.617 543.421 863.056 541.084C862.587 539.131 861.651 537.275 860 535.353C858.297 533.366 858.221 532.407 855.04 528.704C853.654 524.57 853.82 526.07 853.587 522.674C853.529 521.823 853.453 520.728 853.227 519.169C852.52 514.301 850.924 509.964 849.296 505.551C848.439 503.219 847.57 500.868 846.788 498.292C846.781 498.261 846.768 498.236 846.761 498.205L845.398 493.078Z" fill="#C5AE99"/>
</g>
<path d="M816.215 364.99L841.439 362.268L836.872 308.744L836.872 297.326L816.215 283.624L784.349 279.057L724.522 303.409L683.25 329.192L669.063 362.268L665.439 395.349L665.439 443.821L673.226 471.224L711.37 519.344L724.522 452.955L727.561 389.377L734.21 364.68L759.812 339.41L802.929 335.87L816.215 364.99Z" fill="#877E6C"/>
<path d="M846.443 362.161L827.535 359.65L835.238 310.27L837.806 297.63L846.443 287.05L866.558 287.05L915.177 305.348L946.114 329.136L952.192 359.65L952.192 394.378L952.192 439.614L948.767 476.587L933.166 501.5L925.035 439.614L912.899 384.66L907.914 361.876L888.723 338.563L856.403 335.296L846.443 362.161Z" fill="#877E6C"/>
<path d="M826.748 341.278L835.73 346.416L822.257 312.16L766.798 303.035L734.682 319.011L706.708 332.721L700.999 363.544L693.006 389.811L700.999 422.923L716.718 475.445L727.26 505.132L745.529 412.647L756.947 370.4V354.415L772.932 335.005L808.784 325.863L826.748 341.278Z" fill="#938975"/>
<path d="M844.625 344.888L838.014 349.591L847.93 318.238L888.748 309.885L912.386 324.508L932.974 337.056L937.176 365.267L943.059 389.308L937.176 419.614L932.974 468.594L930.499 485.721L904.402 410.208L895.999 371.542V356.912L884.234 339.146L857.846 330.779L844.625 344.888Z" fill="#938975"/>
<path d="M826.748 334.427L835.73 339.566L826.748 303.035L799.193 284.766H772.932L744.387 305.318L705.49 334.427L700.999 356.694L705.49 377.247L716.718 409.791L734.682 435.483L772.932 444.617L766.798 402.371L756.947 363.55V347.565L772.932 328.154L808.784 319.012L826.748 334.427Z" fill="#AC9F87"/>
<path d="M839.993 334.738L833.447 339.436L839.993 306.036L860.075 289.333H879.215L900.019 308.124L928.367 334.738L931.641 355.096L928.367 373.887L925.932 409.221L915.656 430.915L920.223 458.318L895.103 398.945L890.865 361.364V346.749L879.215 329.002L853.085 320.644L839.993 334.738Z" fill="#AC9F87"/>
<path d="M831.163 357.841L840.297 368.117L838.014 348.706L814.036 341.855L793.484 353.273L778.641 368.117V396.661L787.775 416.072L804.902 427.49L796.909 409.221L787.775 387.527L796.909 368.117L814.036 357.841H831.163Z" fill="#A99A84"/>
<path d="M831.163 369.259L840.297 379.535L838.014 360.124L814.036 353.273L793.484 364.691L778.641 379.535V408.079L787.775 427.49L804.902 438.908L796.909 420.639L787.775 398.945L796.909 379.535L814.036 369.259H831.163Z" fill="#B9A98B"/>
<path d="M840.145 346.673L836.872 340.714L840.145 322.445L878.662 307.602L908.805 324.589L930.575 346.673L933.924 368.757L930.575 389.142L922.202 421.419L903.781 446.9V407.829L917.178 375.552L903.781 346.673L878.662 331.384H853.542L840.145 346.673Z" fill="#A3957B"/>
<path d="M822.005 335.255L817.462 329.296L822.005 311.027L875.475 296.184L917.321 313.171L947.543 335.255L952.193 357.339L947.543 377.724L935.919 410.001L910.347 435.482V396.411L928.945 364.134L910.347 335.255L875.475 319.967H840.604L822.005 335.255Z" fill="#9D917A"/>
<path d="M837.253 353.329L831.163 357.506L840.297 329.658L872.268 321.303L899.671 335.228L919.462 353.329L922.506 371.431L919.462 388.14L911.85 414.596L895.103 435.482V403.456L907.282 377L895.103 353.329L872.268 340.797H849.432L837.253 353.329Z" fill="#A99A84"/>
<path d="M849.77 357.627L840.297 367.767L842.666 348.615L867.531 341.855L888.845 353.121L904.238 367.767V395.931L894.765 415.082L877.004 426.348L885.293 408.323L894.765 386.918L885.293 367.767L867.531 357.627H849.77Z" fill="#A99A84"/>
<path d="M842.886 346.673L849.432 351.77L839.612 317.794L799.193 308.744L775.786 324.589L754.511 346.673L751.238 368.757L754.511 389.142L762.694 421.419L780.696 446.9V407.829L767.603 375.552L780.696 346.673L805.245 331.385H829.793L842.886 346.673Z" fill="#9D917A"/>
<path d="M845.778 353.329L851.715 357.506L842.809 329.658L811.639 321.303L784.921 335.228L765.624 353.329L762.656 371.431L765.624 388.14L773.046 414.596L789.374 435.482V403.456L777.499 377L789.374 353.329L811.639 340.797H833.904L845.778 353.329Z" fill="#A99A84"/>
<path d="M839.841 358.982L844.865 362.408L837.329 339.572L810.953 332.721L788.346 344.139L772.018 358.982L769.506 373.826L772.018 387.527L778.298 409.221L792.114 426.348V400.087L782.066 378.393L792.114 358.982L810.953 348.706H829.793L839.841 358.982Z" fill="#B9A98B"/>
<path d="M856.171 474.482C856.412 471.834 858.823 469.642 860.544 467.921C862.155 466.311 863.523 463.859 865.598 462.673C870.181 460.054 875.006 459.535 879.788 457.522C882.57 456.351 886.976 456.113 889.945 456.113C893.775 456.113 897.606 456.113 901.437 456.113C903.067 456.113 905.807 456.644 907.123 457.668C908.331 458.608 910.186 460.486 911.715 460.486" stroke="#AC9F87" stroke-width="6.85075" stroke-linecap="round"/>
<path d="M809.811 475.356C808.586 471.682 804.056 469.269 801.72 466.415C800.011 464.326 797.748 462.84 795.597 461.167C792.068 458.422 787.634 456.987 783.229 456.987C777.221 456.987 771.123 456.706 765.176 457.449C763.45 457.665 762.002 458.811 760.39 459.271C758.191 459.9 755.659 460.96 753.829 462.333C751.873 463.801 750.129 464.894 747.901 465.978C746.535 466.642 745.387 467.769 744.208 468.359" stroke="#AC9F87" stroke-width="6.85075" stroke-linecap="round"/>
<path d="M867.519 494.035C865.568 493.916 854.995 491.283 854.995 491.283C854.995 491.283 857.717 486.098 860.185 483.697C862.654 481.296 866.772 477.782 870.033 477.229C873.295 476.675 876.467 475.159 880.12 475.371C883.774 475.583 886.138 475.892 888.257 475.951C890.377 476.01 895.802 477.319 897.571 478.186C899.339 479.053 906.35 489.125 906.35 489.125C906.35 489.125 902.326 491.033 899.711 491.463C897.096 491.893 893.939 493.71 890.695 493.73C887.452 493.75 883.34 495.248 880.054 494.815C876.768 494.382 869.469 494.153 867.519 494.035Z" fill="white"/>
<path d="M868.518 488.269C868.943 489.547 871.232 494.327 871.232 494.327C871.232 494.327 874.651 494.54 876.213 494.607C877.767 494.673 878.902 494.743 881.156 494.884L881.194 494.886C883.473 495.028 886.963 494.101 886.963 494.101C886.963 494.101 889.526 489.685 889.668 487.405C889.81 485.126 890 484.595 889.952 482.847C889.904 481.1 888.098 475.868 888.098 475.868C888.098 475.868 885.819 475.726 883.54 475.584C881.261 475.442 881.261 475.442 878.981 475.3C876.702 475.158 876.375 475.615 874.352 476.156C872.33 476.697 870.033 477.229 870.033 477.229C870.033 477.229 868.296 482.294 868.191 483.606C868.087 484.918 868.094 486.991 868.518 488.269Z" fill="#81AFD9"/>
<circle cx="878.414" cy="484.417" r="3.42537" transform="rotate(3.56196 878.414 484.417)" fill="#201F1D"/>
<path d="M771.753 494.855C769.814 494.613 759.43 491.31 759.43 491.31C759.43 491.31 762.478 486.309 765.095 484.071C767.711 481.832 772.045 478.589 775.335 478.244C778.625 477.9 781.888 476.59 785.52 477.034C789.153 477.479 791.492 477.938 793.604 478.132C795.715 478.326 801.046 479.98 802.755 480.957C804.465 481.935 810.819 492.435 810.819 492.435C810.819 492.435 806.681 494.081 804.044 494.343C801.406 494.606 798.14 496.217 794.902 496.03C791.664 495.843 787.464 497.076 784.213 496.434C780.962 495.793 773.692 495.098 771.753 494.855Z" fill="white"/>
<path d="M773.119 489.165C773.461 490.468 775.441 495.384 775.441 495.384C775.441 495.384 778.839 495.815 780.394 495.981C781.94 496.146 783.068 496.289 785.308 496.573L785.346 496.578C787.612 496.865 791.154 496.163 791.154 496.163C791.154 496.163 793.993 491.919 794.28 489.654C794.567 487.388 794.791 486.87 794.855 485.123C794.918 483.376 793.45 478.039 793.45 478.039C793.45 478.039 791.184 477.752 788.919 477.465C786.654 477.178 786.654 477.178 784.388 476.891C782.123 476.604 781.767 477.039 779.714 477.45C777.661 477.86 775.335 478.244 775.335 478.244C775.335 478.244 773.278 483.188 773.09 484.491C772.902 485.794 772.777 487.863 773.119 489.165Z" fill="#81AFD9"/>
<circle cx="783.24" cy="485.953" r="3.42537" transform="rotate(7.22161 783.24 485.953)" fill="#201F1D"/>
<path d="M835.732 362.754L841.364 370.746L840.171 358.811L847.302 352.478H868.996L890.69 362.754L902.26 382.164L890.69 403.858V430.119L906.599 412.992L913.83 391.298L916.723 377.597L913.83 362.754L895.029 347.91L868.996 336.492L838.624 343.343L840.171 358.811L835.732 362.754Z" fill="#B9A98B"/>
<path d="M847.487 365.966L838.015 376.105L840.383 356.953L865.249 350.194L886.562 361.46L901.955 376.105V404.269L892.482 423.421L874.721 434.687L883.01 416.662L892.482 395.257L883.01 376.105L865.249 365.966H847.487Z" fill="#B9A98B"/>
<defs>
<filter id="filter0_d_26_186" x="548" y="595.679" width="191.821" height="292.298" filterUnits="userSpaceOnUse" color-interpolation-filters="sRGB">
<feFlood flood-opacity="0" result="BackgroundImageFix"/>
<feColorMatrix in="SourceAlpha" type="matrix" values="0 0 0 0 0 0 0 0 0 0 0 0 0 0 0 0 0 0 127 0" result="hardAlpha"/>
<feOffset dx="-9.13433" dy="2.28358"/>
<feGaussianBlur stdDeviation="15.9851"/>
<feComposite in2="hardAlpha" operator="out"/>
<feColorMatrix type="matrix" values="0 0 0 0 0 0 0 0 0 0 0 0 0 0 0 0 0 0 0.25 0"/>
<feBlend mode="normal" in2="BackgroundImageFix" result="effect1_dropShadow_26_186"/>
<feBlend mode="normal" in="SourceGraphic" in2="effect1_dropShadow_26_186" result="shape"/>
</filter>
<filter id="filter1_d_26_186" x="881.403" y="648.202" width="129.023" height="189.537" filterUnits="userSpaceOnUse" color-interpolation-filters="sRGB">
<feFlood flood-opacity="0" result="BackgroundImageFix"/>
<feColorMatrix in="SourceAlpha" type="matrix" values="0 0 0 0 0 0 0 0 0 0 0 0 0 0 0 0 0 0 127 0" result="hardAlpha"/>
<feOffset dx="2.28358"/>
<feGaussianBlur stdDeviation="4.56716"/>
<feComposite in2="hardAlpha" operator="out"/>
<feColorMatrix type="matrix" values="0 0 0 0 0 0 0 0 0 0 0 0 0 0 0 0 0 0 0.25 0"/>
<feBlend mode="normal" in2="BackgroundImageFix" result="effect1_dropShadow_26_186"/>
<feBlend mode="normal" in="SourceGraphic" in2="effect1_dropShadow_26_186" result="shape"/>
</filter>
<clipPath id="clip0_26_186">
<rect width="61.9057" height="63.9403" fill="white" transform="translate(806.4 494.34) rotate(-4.26005)"/>
</clipPath>
</defs>
</svg>
